<svg xmlns="http://www.w3.org/2000/svg" version="1.1" xmlns:xlink="http://www.w3.org/1999/xlink" width="1024" height="1024"><svg xmlns="http://www.w3.org/2000/svg" version="1.1" xmlns:xlink="http://www.w3.org/1999/xlink" width="1024" height="1024"><svg xmlns="http://www.w3.org/2000/svg" xmlns:xlink="http://www.w3.org/1999/xlink" width="1024" height="1024" viewBox="0 0 1024 1024"><path fill="#008C60" d="M507.994 154.746C568.867 153.853 634.299 171.365 687.208 201.119C696.743 206.521 706.054 212.31 715.116 218.472C719.971 221.757 724.871 225.499 729.756 228.616C712.199 250.523 690.566 274.445 672.124 295.981L567.036 419.086L533.305 458.643C526.771 466.318 519.203 474.846 513.073 482.733L511.837 483.403C509.652 482.457 483.816 450.886 480.259 446.697L293.353 229.384C355.79 180.426 429.592 157.942 507.994 154.746ZM335.662 229.65C348.118 245.89 365.855 265.189 379.416 281.105L461.848 377.366C472.624 389.737 483.336 402.164 493.985 414.645C499.045 420.53 507.633 429.907 511.94 435.911L516.604 430.229L617.706 311.91C640.606 285.038 664.642 255.358 688.254 229.396C632.24 195.389 567.652 178.15 502.143 179.72C486.976 180.564 472.78 181.325 457.719 183.855C417.302 190.645 370.287 207.506 335.662 229.65Z"></path><path fill="#008C60" d="M511.736 546.905C513.423 548.12 525.257 563.182 527.508 565.933L569.91 617.412L661.76 728.758C674.494 743.945 687.081 759.253 699.521 774.682C706.209 782.958 714.32 792.637 720.325 801.352C654.269 847.382 591.234 867.817 511.043 869.946C453.679 869.812 397.208 855.719 346.508 828.883C331.533 820.879 316.648 811.025 302.559 801.553C310.455 790.623 321.723 777.679 330.42 767.13L377.289 710.002L460.655 608.175C477.364 587.902 494.569 566.725 511.736 546.905Z"></path><path fill="#008C60" d="M752.483 247.245C753.042 247.48 754.296 248.105 754.723 248.52C806.412 298.731 843.313 361.342 858.31 432.156C862.993 454.269 864.636 472.302 867.418 494.259C844.632 493.859 820.765 494.173 797.916 494.158L656.75 494.192L581.716 494.256C568.929 494.265 553.661 493.846 541.217 494.457C549.55 483.482 560.093 471.768 569.159 461.266L606.726 417.502C642.541 376.219 678.145 334.753 713.537 293.107C726.46 277.872 739.904 262.713 752.483 247.245ZM609.938 462.569L688.75 462.626L792.346 462.855C806.717 462.853 823.547 462.196 837.493 462.605C834.424 449.08 832.814 436.148 829.209 422.243C816.05 373 792.346 327.204 759.739 288.026C751.763 297.913 742.049 308.184 733.64 318.079L655.343 409.129C645.783 420.046 636.282 431.014 626.84 442.032C621.719 447.988 614.313 456.242 609.938 462.569Z"></path><path fill="#008C60" d="M271.463 247.883C274.85 250.437 289.551 268.593 292.995 272.731C304.529 286.585 316.177 300.343 327.936 314.006L436.245 440.182C445.393 451.062 454.606 461.886 463.884 472.654C469.197 478.801 477.52 487.858 482.07 494.025C470.8 494.827 453.246 494.298 441.552 494.278L367.75 494.192L156.443 494.348C156.424 492.815 156.449 491.282 156.52 489.75C160.673 400.168 204.95 307.95 271.463 247.883ZM185.292 463.028L336.75 463.002L415.534 462.946C402.428 448.932 388.793 432.082 376.134 417.443L297.16 325.984C292.244 320.28 268.93 291.59 264.558 288.901C257.71 297.281 250.94 305.654 244.682 314.484C215.87 355.137 191.112 413.109 185.292 463.028Z"></path><path fill="#008C60" d="M229.845 528.258C246.503 528.675 265.092 528.275 281.923 528.3L395.384 528.355L445.659 528.427C452.005 528.459 468.531 528.875 473.922 528.042C455.458 548.646 435.444 573.445 417.707 594.92L329.56 701.846C317.846 716.183 306.047 730.449 294.162 744.644C285.677 754.915 277.475 765.41 268.54 775.293L267.998 774.774C202.291 711.522 157.998 620.361 156.378 528.496L229.845 528.258Z"></path><path fill="#008C60" d="M551.657 528.06C559.797 528.54 571.904 528.038 580.537 528.06L642.334 528.298L867.683 528.059C867.523 539.968 865.525 556.212 863.65 568.065C855.911 619.85 836.517 669.203 806.93 712.403C791.136 736.247 773.817 754.146 753.628 774.061C748.298 766.3 738.813 755.408 732.557 747.765L693.399 700.05L599.98 586.698C583.973 567.298 567.333 547.645 551.657 528.06Z"></path></svg></svg><style>@media (prefers-color-scheme: light) { :root { filter: none; } }
@media (prefers-color-scheme: dark) { :root { filter: none; } }
</style></svg>